<svg xmlns="http://www.w3.org/2000/svg" viewBox="0 0 32 32" width="32" height="32">
  <circle cx="16" cy="16" r="16" fill="#2775CA"/>
  <path fill="#FFFFFF" d="M20.022 18.124c0-2.124-1.28-2.852-3.84-3.156-1.828-.232-2.192-.696-2.192-1.512s.588-1.328 1.752-1.328c1.048 0 1.636.352 1.924 1.216a.252.252 0 00.236.168h1.08a.24.24 0 00.24-.248v-.052c-.22-1.28-1.24-2.24-2.52-2.36v-1.352a.24.24 0 00-.24-.24h-1.024a.24.24 0 00-.24.24v1.316c-1.532.196-2.552 1.232-2.552 2.54 0 2.04 1.252 2.8 3.812 3.104 1.7.308 2.22.696 2.22 1.604s-.788 1.54-1.98 1.54c-1.556 0-2.104-.656-2.296-1.556a.24.24 0 00-.236-.196h-1.12a.24.24 0 00-.24.248v.052c.22 1.432 1.148 2.44 2.84 2.68v1.352a.24.24 0 00.24.24h1.024a.24.24 0 00.24-.24v-1.34c1.552-.22 2.612-1.3 2.612-2.72z"/>
  <path fill="#FFFFFF" d="M13.396 23.792C9.284 22.468 7.1 18.008 8.42 13.904a7.56 7.56 0 014.976-4.788.252.252 0 00.18-.244V7.924a.244.244 0 00-.308-.236C8.556 9.072 5.932 13.704 7.316 18.416c.836 2.896 2.944 5.16 5.72 6.256a.244.244 0 00.34-.228v-.948a.26.26 0 00-.18-.704z"/>
  <path fill="#FFFFFF" d="M18.912 7.696a.244.244 0 00-.34.228v.948c0 .108.068.204.172.24 4.112 1.324 6.296 5.784 4.976 9.888a7.56 7.56 0 01-4.976 4.788.252.252 0 00-.172.244v.948a.244.244 0 00.308.236c4.712-1.384 7.336-6.016 5.952-10.728-.836-2.9-2.944-5.164-5.72-6.792z"/>
</svg>
